D:\school\WTK\thesis\model\3dpredictsim\Results\PredSim_adaptations\Pog_s1_tmt_bCst_d00_k200_ig24_act_GRF.mot
nRows=22
nColumns=19

name D:\school\WTK\thesis\model\3dpredictsim\Results\PredSim_adaptations\Pog_s1_tmt_bCst_d00_k200_ig24_act_GRF.mot
datacolumns 19
datarows 22
range 0.0000000000 0.2636373413
endheader
time 	ground_force_vx	ground_force_vy	ground_force_vz	ground_force_px	ground_force_py	ground_force_pz	1_ground_force_vx	1_ground_force_vy	1_ground_force_vz	1_ground_force_px	1_ground_force_py	1_ground_force_pz	ground_torque_x	ground_torque_y	ground_torque_z	1_ground_torque_x	1_ground_torque_y	1_ground_torque_z
        0.0000000000	      -51.0072917851	       89.0139304167	       69.3432928078	        0.1726995635	        0.0000000000	        0.0478564288	       44.9963656642	      271.8653353186	      -17.0253022069	       -0.3755284924	        0.0000000000	       -0.0201571931	        0.0000000000	        0.0000000000	        0.0000000000	        0.0000000000	        0.0000000000	        0.0000000000	
        0.0125541591	      -30.3343934126	      272.7526475520	       34.4581778108	        0.1758936383	        0.0000000000	        0.0448047914	       31.5219275272	      235.0128426728	      -23.4269979874	       -0.3702860258	        0.0000000000	       -0.0180514247	        0.0000000000	        0.0000000000	        0.0000000000	        0.0000000000	        0.0000000000	        0.0000000000	
        0.0251083182	      -40.7521093304	      494.0015243743	       -1.1417513988	        0.1790638835	        0.0000000000	        0.0442971304	       28.5377119620	      201.3500561263	      -21.1333075335	       -0.3702042938	        0.0000000000	       -0.0179338014	        0.0000000000	        0.0000000000	        0.0000000000	        0.0000000000	        0.0000000000	        0.0000000000	
        0.0376624773	      -89.3906330775	      746.6185868814	      -14.4463202230	        0.1895327248	        0.0000000000	        0.0464597798	       18.9781427337	      153.1980287046	      -22.6232248708	       -0.3702480298	        0.0000000000	       -0.0181606236	        0.0000000000	        0.0000000000	        0.0000000000	        0.0000000000	        0.0000000000	        0.0000000000	
        0.0502166364	     -127.7514294499	      909.9359627141	      -15.6761490282	        0.1978727009	        0.0000000000	        0.0482911075	        2.8696386803	       78.4076414635	      -22.8663093107	       -0.3707606891	        0.0000000000	       -0.0191698828	        0.0000000000	        0.0000000000	        0.0000000000	        0.0000000000	        0.0000000000	        0.0000000000	
        0.0627707956	     -131.1781400899	      934.4857984791	      -17.2750701939	        0.2033705784	        0.0000000000	        0.0492838976	      -13.7330511215	       16.7523373820	       -6.5747873233	       -0.3767259018	        0.0000000000	       -0.0188489983	        0.0000000000	        0.0000000000	        0.0000000000	        0.0000000000	        0.0000000000	        0.0000000000	
        0.0753249547	     -117.4827414939	      888.3889546628	      -17.2262753198	        0.2076123951	        0.0000000000	        0.0498006385	      -19.8426293153	       15.9078900600	        0.0686789337	       -0.3695006715	        0.0000000000	       -0.0153400660	        0.0000000000	        0.0000000000	        0.0000000000	        0.0000000000	        0.0000000000	        0.0000000000	
        0.0878791138	     -103.0864869757	      827.7804660787	      -17.1821899619	        0.2121626435	        0.0000000000	        0.0499271047	      -25.6788888408	       17.7659098341	        0.8475920578	       -0.3535007671	        0.0000000000	       -0.0159543401	        0.0000000000	        0.0000000000	        0.0000000000	        0.0000000000	        0.0000000000	        0.0000000000	
        0.1004332729	      -92.0063583690	      777.6758227107	      -17.5219083490	        0.2179512287	        0.0000000000	        0.0497116530	      -26.3143788315	       16.1896672507	        1.6375816109	       -0.3326893891	        0.0000000000	       -0.0171149383	        0.0000000000	        0.0000000000	        0.0000000000	        0.0000000000	        0.0000000000	        0.0000000000	
        0.1129874320	      -84.2634925163	      745.8988611432	      -17.9392842809	        0.2253883751	        0.0000000000	        0.0491614141	      -23.2690763500	       13.0913256885	        1.9301649982	       -0.3080044030	        0.0000000000	       -0.0189772902	        0.0000000000	        0.0000000000	        0.0000000000	        0.0000000000	        0.0000000000	        0.0000000000	
        0.1255415911	      -76.8354097741	      719.0434590984	      -18.1086947515	        0.2332063838	        0.0000000000	        0.0484317765	      -17.4878433111	        9.2007431469	        1.6908913867	        0.0000000000	        0.0000000000	        0.0000000000	        0.0000000000	        0.0000000000	        0.0000000000	        0.0000000000	        0.0000000000	        0.0000000000	
        0.1380957502	      -69.9067805933	      693.7725396892	      -18.4393415081	        0.2410334357	        0.0000000000	        0.0477200527	      -11.7332419935	        5.9050469530	        1.1683486403	        0.0000000000	        0.0000000000	        0.0000000000	        0.0000000000	        0.0000000000	        0.0000000000	        0.0000000000	        0.0000000000	        0.0000000000	
        0.1506499093	      -63.0718609372	      672.3915805790	      -18.5525937832	        0.2487850296	        0.0000000000	        0.0470473063	       -7.6736644623	        3.7384072315	        0.7616365144	        0.0000000000	        0.0000000000	        0.0000000000	        0.0000000000	        0.0000000000	        0.0000000000	        0.0000000000	        0.0000000000	        0.0000000000	
        0.1632040684	      -56.6531098155	      655.1087600563	      -18.8493300564	        0.2567161306	        0.0000000000	        0.0463477407	       -5.3291139397	        2.5337679716	        0.5179476763	        0.0000000000	        0.0000000000	        0.0000000000	        0.0000000000	        0.0000000000	        0.0000000000	        0.0000000000	        0.0000000000	        0.0000000000	
        0.1757582276	      -51.1463110059	      640.4645514521	      -18.9020027245	        0.2649180450	        0.0000000000	        0.0455767270	       -3.7906857452	        1.7678850642	        0.3597870031	        0.0000000000	        0.0000000000	        0.0000000000	        0.0000000000	        0.0000000000	        0.0000000000	        0.0000000000	        0.0000000000	        0.0000000000	
        0.1883123867	      -46.5287674645	      628.3771540966	      -18.1433615442	        0.2732457605	        0.0000000000	        0.0447493211	       -2.5720662933	        1.1793007476	        0.2367955782	        0.0000000000	        0.0000000000	        0.0000000000	        0.0000000000	        0.0000000000	        0.0000000000	        0.0000000000	        0.0000000000	        0.0000000000	
        0.2008665458	      -42.3845047540	      618.4767804132	      -16.7672052771	        0.2814058974	        0.0000000000	        0.0438973897	       -1.6914114300	        0.7634100054	        0.1486715918	        0.0000000000	        0.0000000000	        0.0000000000	        0.0000000000	        0.0000000000	        0.0000000000	        0.0000000000	        0.0000000000	        0.0000000000	
        0.2134207049	      -38.3599265883	      609.7879838191	      -15.6720614233	        0.2892554296	        0.0000000000	        0.0430399421	       -1.1465055384	        0.5091181864	        0.0952493084	        0.0000000000	        0.0000000000	        0.0000000000	        0.0000000000	        0.0000000000	        0.0000000000	        0.0000000000	        0.0000000000	        0.0000000000	
        0.2259748640	      -34.3350861355	      601.5476357776	      -15.1301713459	        0.2968163608	        0.0000000000	        0.0421805852	       -0.8386314632	        0.3659295513	        0.0659948716	        0.0000000000	        0.0000000000	        0.0000000000	        0.0000000000	        0.0000000000	        0.0000000000	        0.0000000000	        0.0000000000	        0.0000000000	
        0.2385290231	      -30.4979185552	      593.5280725052	      -14.9366485444	        0.3040998335	        0.0000000000	        0.0413212639	       -0.6731320136	        0.2884802723	        0.0504645313	        0.0000000000	        0.0000000000	        0.0000000000	        0.0000000000	        0.0000000000	        0.0000000000	        0.0000000000	        0.0000000000	        0.0000000000	
        0.2510831822	      -26.8583052529	      585.5043788627	      -15.0238426902	        0.3110868015	        0.0000000000	        0.0404651791	       -0.5932066085	        0.2497479617	        0.0427090333	        0.0000000000	        0.0000000000	        0.0000000000	        0.0000000000	        0.0000000000	        0.0000000000	        0.0000000000	        0.0000000000	        0.0000000000	
        0.2636373413	      -23.1368165720	      577.6608605318	      -15.1505659807	        0.3178009482	        0.0000000000	        0.0396094939	       -0.5699886828	        0.2358943547	        0.0398158135	        0.0000000000	        0.0000000000	        0.0000000000	        0.0000000000	        0.0000000000	        0.0000000000	        0.0000000000	        0.0000000000	        0.0000000000	
